<svg xmlns="http://www.w3.org/2000/svg" viewBox="0 0 1200 170" width="1200" height="170" preserveAspectRatio="none">
<defs>
<linearGradient id="g0" x1="0" y1="0" x2="0" y2="1"><stop offset="0" stop-color="#0A2342" stop-opacity="0"/><stop offset="0.55" stop-color="#0A2342" stop-opacity="0.30"/><stop offset="1" stop-color="#0A2342" stop-opacity="0.6"/></linearGradient>
<linearGradient id="g1" x1="0" y1="0" x2="0" y2="1"><stop offset="0" stop-color="#0E5C74" stop-opacity="0"/><stop offset="0.55" stop-color="#0E5C74" stop-opacity="0.25"/><stop offset="1" stop-color="#0E5C74" stop-opacity="0.5"/></linearGradient>
<linearGradient id="g2" x1="0" y1="0" x2="0" y2="1"><stop offset="0" stop-color="#12A5B8" stop-opacity="0"/><stop offset="0.55" stop-color="#12A5B8" stop-opacity="0.20"/><stop offset="1" stop-color="#12A5B8" stop-opacity="0.4"/></linearGradient>
<linearGradient id="g3" x1="0" y1="0" x2="0" y2="1"><stop offset="0" stop-color="#16C0C0" stop-opacity="0"/><stop offset="0.55" stop-color="#16C0C0" stop-opacity="0.14"/><stop offset="1" stop-color="#16C0C0" stop-opacity="0.28"/></linearGradient>
</defs>
<path d="M-340.0,78.0 L-332.0,80.2 L-324.0,82.4 L-316.0,84.4 L-308.0,86.4 L-300.0,88.1 L-292.0,89.6 L-284.0,90.9 L-276.0,91.9 L-268.0,92.6 L-260.0,92.9 L-252.0,93.0 L-244.0,92.7 L-236.0,92.1 L-228.0,91.2 L-220.0,90.0 L-212.0,88.5 L-204.0,86.8 L-196.0,84.9 L-188.0,82.9 L-180.0,80.8 L-172.0,78.6 L-164.0,76.3 L-156.0,74.2 L-148.0,72.1 L-140.0,70.1 L-132.0,68.3 L-124.0,66.7 L-116.0,65.4 L-108.0,64.3 L-100.0,63.6 L-92.0,63.1 L-84.0,63.0 L-76.0,63.2 L-68.0,63.7 L-60.0,64.6 L-52.0,65.7 L-44.0,67.1 L-36.0,68.7 L-28.0,70.6 L-20.0,72.6 L-12.0,74.7 L-4.0,76.9 L4.0,79.1 L12.0,81.3 L20.0,83.4 L28.0,85.4 L36.0,87.3 L44.0,88.9 L52.0,90.3 L60.0,91.4 L68.0,92.3 L76.0,92.8 L84.0,93.0 L92.0,92.9 L100.0,92.4 L108.0,91.7 L116.0,90.6 L124.0,89.3 L132.0,87.7 L140.0,85.9 L148.0,83.9 L156.0,81.8 L164.0,79.7 L172.0,77.4 L180.0,75.2 L188.0,73.1 L196.0,71.1 L204.0,69.2 L212.0,67.5 L220.0,66.0 L228.0,64.8 L236.0,63.9 L244.0,63.3 L252.0,63.0 L260.0,63.1 L268.0,63.4 L276.0,64.1 L284.0,65.1 L292.0,66.4 L300.0,67.9 L308.0,69.6 L316.0,71.6 L324.0,73.6 L332.0,75.8 L340.0,78.0 L348.0,80.2 L356.0,82.4 L364.0,84.4 L372.0,86.4 L380.0,88.1 L388.0,89.6 L396.0,90.9 L404.0,91.9 L412.0,92.6 L420.0,92.9 L428.0,93.0 L436.0,92.7 L444.0,92.1 L452.0,91.2 L460.0,90.0 L468.0,88.5 L476.0,86.8 L484.0,84.9 L492.0,82.9 L500.0,80.8 L508.0,78.6 L516.0,76.3 L524.0,74.2 L532.0,72.1 L540.0,70.1 L548.0,68.3 L556.0,66.7 L564.0,65.4 L572.0,64.3 L580.0,63.6 L588.0,63.1 L596.0,63.0 L604.0,63.2 L612.0,63.7 L620.0,64.6 L628.0,65.7 L636.0,67.1 L644.0,68.7 L652.0,70.6 L660.0,72.6 L668.0,74.7 L676.0,76.9 L684.0,79.1 L692.0,81.3 L700.0,83.4 L708.0,85.4 L716.0,87.3 L724.0,88.9 L732.0,90.3 L740.0,91.4 L748.0,92.3 L756.0,92.8 L764.0,93.0 L772.0,92.9 L780.0,92.4 L788.0,91.7 L796.0,90.6 L804.0,89.3 L812.0,87.7 L820.0,85.9 L828.0,83.9 L836.0,81.8 L844.0,79.7 L852.0,77.4 L860.0,75.2 L868.0,73.1 L876.0,71.1 L884.0,69.2 L892.0,67.5 L900.0,66.0 L908.0,64.8 L916.0,63.9 L924.0,63.3 L932.0,63.0 L940.0,63.1 L948.0,63.4 L956.0,64.1 L964.0,65.1 L972.0,66.4 L980.0,67.9 L988.0,69.6 L996.0,71.6 L1004.0,73.6 L1012.0,75.8 L1020.0,78.0 L1028.0,80.2 L1036.0,82.4 L1044.0,84.4 L1052.0,86.4 L1060.0,88.1 L1068.0,89.6 L1076.0,90.9 L1084.0,91.9 L1092.0,92.6 L1100.0,92.9 L1108.0,93.0 L1116.0,92.7 L1124.0,92.1 L1132.0,91.2 L1140.0,90.0 L1148.0,88.5 L1156.0,86.8 L1164.0,84.9 L1172.0,82.9 L1180.0,80.8 L1188.0,78.6 L1196.0,76.3 L1204.0,74.2 L1212.0,72.1 L1220.0,70.1 L1228.0,68.3 L1236.0,66.7 L1244.0,65.4 L1252.0,64.3 L1260.0,63.6 L1268.0,63.1 L1276.0,63.0 L1284.0,63.2 L1292.0,63.7 L1300.0,64.6 L1308.0,65.7 L1316.0,67.1 L1324.0,68.7 L1332.0,70.6 L1340.0,72.6 L1348.0,74.7 L1356.0,76.9 L1364.0,79.1 L1372.0,81.3 L1380.0,83.4 L1388.0,85.4 L1396.0,87.3 L1404.0,88.9 L1412.0,90.3 L1420.0,91.4 L1428.0,92.3 L1436.0,92.8 L1444.0,93.0 L1452.0,92.9 L1460.0,92.4 L1468.0,91.7 L1476.0,90.6 L1484.0,89.3 L1492.0,87.7 L1500.0,85.9 L1508.0,83.9 L1516.0,81.8 L1524.0,79.7 L1532.0,77.4 L1540.0,75.2 L1540.0,170 L-340.0,170 Z" fill="url(#g0)"><animateTransform attributeName="transform" type="translate" values="0 0; -340 0" dur="13s" repeatCount="indefinite"/></path>
<path d="M-250.0,95.0 L-242.0,99.0 L-234.0,102.8 L-226.0,106.3 L-218.0,109.4 L-210.0,111.9 L-202.0,113.7 L-194.0,114.7 L-186.0,115.0 L-178.0,114.4 L-170.0,113.1 L-162.0,111.0 L-154.0,108.3 L-146.0,105.1 L-138.0,101.4 L-130.0,97.5 L-122.0,93.5 L-114.0,89.5 L-106.0,85.8 L-98.0,82.4 L-90.0,79.6 L-82.0,77.4 L-74.0,75.8 L-66.0,75.1 L-58.0,75.1 L-50.0,76.0 L-42.0,77.6 L-34.0,79.9 L-26.0,82.8 L-18.0,86.3 L-10.0,90.0 L-2.0,94.0 L6.0,98.0 L14.0,101.9 L22.0,105.5 L30.0,108.7 L38.0,111.3 L46.0,113.3 L54.0,114.5 L62.0,115.0 L70.0,114.6 L78.0,113.5 L86.0,111.6 L94.0,109.1 L102.0,105.9 L110.0,102.4 L118.0,98.5 L126.0,94.5 L134.0,90.5 L142.0,86.7 L150.0,83.2 L158.0,80.2 L166.0,77.8 L174.0,76.1 L182.0,75.2 L190.0,75.0 L198.0,75.7 L206.0,77.1 L214.0,79.3 L222.0,82.1 L230.0,85.4 L238.0,89.1 L246.0,93.0 L254.0,97.0 L262.0,100.9 L270.0,104.6 L278.0,107.9 L286.0,110.7 L294.0,112.9 L302.0,114.3 L310.0,115.0 L318.0,114.8 L326.0,113.9 L334.0,112.2 L342.0,109.8 L350.0,106.8 L358.0,103.3 L366.0,99.5 L374.0,95.5 L382.0,91.5 L390.0,87.6 L398.0,84.1 L406.0,80.9 L414.0,78.4 L422.0,76.5 L430.0,75.4 L438.0,75.0 L446.0,75.5 L454.0,76.7 L462.0,78.7 L470.0,81.3 L478.0,84.5 L486.0,88.1 L494.0,92.0 L502.0,96.0 L510.0,100.0 L518.0,103.7 L526.0,107.2 L534.0,110.1 L542.0,112.4 L550.0,114.0 L558.0,114.9 L566.0,114.9 L574.0,114.2 L582.0,112.6 L590.0,110.4 L598.0,107.6 L606.0,104.2 L614.0,100.5 L622.0,96.5 L630.0,92.5 L638.0,88.6 L646.0,84.9 L654.0,81.7 L662.0,79.0 L670.0,76.9 L678.0,75.6 L686.0,75.0 L694.0,75.3 L702.0,76.3 L710.0,78.1 L718.0,80.6 L726.0,83.7 L734.0,87.2 L742.0,91.0 L750.0,95.0 L758.0,99.0 L766.0,102.8 L774.0,106.3 L782.0,109.4 L790.0,111.9 L798.0,113.7 L806.0,114.7 L814.0,115.0 L822.0,114.4 L830.0,113.1 L838.0,111.0 L846.0,108.3 L854.0,105.1 L862.0,101.4 L870.0,97.5 L878.0,93.5 L886.0,89.5 L894.0,85.8 L902.0,82.4 L910.0,79.6 L918.0,77.4 L926.0,75.8 L934.0,75.1 L942.0,75.1 L950.0,76.0 L958.0,77.6 L966.0,79.9 L974.0,82.8 L982.0,86.3 L990.0,90.0 L998.0,94.0 L1006.0,98.0 L1014.0,101.9 L1022.0,105.5 L1030.0,108.7 L1038.0,111.3 L1046.0,113.3 L1054.0,114.5 L1062.0,115.0 L1070.0,114.6 L1078.0,113.5 L1086.0,111.6 L1094.0,109.1 L1102.0,105.9 L1110.0,102.4 L1118.0,98.5 L1126.0,94.5 L1134.0,90.5 L1142.0,86.7 L1150.0,83.2 L1158.0,80.2 L1166.0,77.8 L1174.0,76.1 L1182.0,75.2 L1190.0,75.0 L1198.0,75.7 L1206.0,77.1 L1214.0,79.3 L1222.0,82.1 L1230.0,85.4 L1238.0,89.1 L1246.0,93.0 L1254.0,97.0 L1262.0,100.9 L1270.0,104.6 L1278.0,107.9 L1286.0,110.7 L1294.0,112.9 L1302.0,114.3 L1310.0,115.0 L1318.0,114.8 L1326.0,113.9 L1334.0,112.2 L1342.0,109.8 L1350.0,106.8 L1358.0,103.3 L1366.0,99.5 L1374.0,95.5 L1382.0,91.5 L1390.0,87.6 L1398.0,84.1 L1406.0,80.9 L1414.0,78.4 L1422.0,76.5 L1430.0,75.4 L1438.0,75.0 L1446.0,75.5 L1450.0,170 L-250.0,170 Z" fill="url(#g1)"><animateTransform attributeName="transform" type="translate" values="0 0; 250 0" dur="9s" repeatCount="indefinite"/></path>
<path d="M-190.0,110.0 L-182.0,113.9 L-174.0,117.6 L-166.0,120.7 L-158.0,123.1 L-150.0,124.5 L-142.0,125.0 L-134.0,124.4 L-126.0,122.8 L-118.0,120.3 L-110.0,117.1 L-102.0,113.4 L-94.0,109.5 L-86.0,105.6 L-78.0,102.0 L-70.0,99.0 L-62.0,96.7 L-54.0,95.3 L-46.0,95.0 L-38.0,95.7 L-30.0,97.4 L-22.0,100.0 L-14.0,103.3 L-6.0,107.0 L2.0,111.0 L10.0,114.9 L18.0,118.4 L26.0,121.4 L34.0,123.5 L42.0,124.8 L50.0,124.9 L58.0,124.1 L66.0,122.3 L74.0,119.6 L82.0,116.3 L90.0,112.5 L98.0,108.5 L106.0,104.7 L114.0,101.2 L122.0,98.3 L130.0,96.3 L138.0,95.2 L146.0,95.1 L154.0,96.1 L162.0,98.0 L170.0,100.8 L178.0,104.2 L186.0,108.0 L194.0,112.0 L202.0,115.8 L210.0,119.2 L218.0,122.0 L226.0,123.9 L234.0,124.9 L242.0,124.8 L250.0,123.7 L258.0,121.7 L266.0,118.8 L274.0,115.3 L282.0,111.5 L290.0,107.5 L298.0,103.7 L306.0,100.4 L314.0,97.7 L322.0,95.9 L330.0,95.1 L338.0,95.2 L346.0,96.5 L354.0,98.6 L362.0,101.6 L370.0,105.1 L378.0,109.0 L386.0,113.0 L394.0,116.7 L402.0,120.0 L410.0,122.6 L418.0,124.3 L426.0,125.0 L434.0,124.7 L442.0,123.3 L450.0,121.0 L458.0,118.0 L466.0,114.4 L474.0,110.5 L482.0,106.6 L490.0,102.9 L498.0,99.7 L506.0,97.2 L514.0,95.6 L522.0,95.0 L530.0,95.5 L538.0,96.9 L546.0,99.3 L554.0,102.4 L562.0,106.1 L570.0,110.0 L578.0,113.9 L586.0,117.6 L594.0,120.7 L602.0,123.1 L610.0,124.5 L618.0,125.0 L626.0,124.4 L634.0,122.8 L642.0,120.3 L650.0,117.1 L658.0,113.4 L666.0,109.5 L674.0,105.6 L682.0,102.0 L690.0,99.0 L698.0,96.7 L706.0,95.3 L714.0,95.0 L722.0,95.7 L730.0,97.4 L738.0,100.0 L746.0,103.3 L754.0,107.0 L762.0,111.0 L770.0,114.9 L778.0,118.4 L786.0,121.4 L794.0,123.5 L802.0,124.8 L810.0,124.9 L818.0,124.1 L826.0,122.3 L834.0,119.6 L842.0,116.3 L850.0,112.5 L858.0,108.5 L866.0,104.7 L874.0,101.2 L882.0,98.3 L890.0,96.3 L898.0,95.2 L906.0,95.1 L914.0,96.1 L922.0,98.0 L930.0,100.8 L938.0,104.2 L946.0,108.0 L954.0,112.0 L962.0,115.8 L970.0,119.2 L978.0,122.0 L986.0,123.9 L994.0,124.9 L1002.0,124.8 L1010.0,123.7 L1018.0,121.7 L1026.0,118.8 L1034.0,115.3 L1042.0,111.5 L1050.0,107.5 L1058.0,103.7 L1066.0,100.4 L1074.0,97.7 L1082.0,95.9 L1090.0,95.1 L1098.0,95.2 L1106.0,96.5 L1114.0,98.6 L1122.0,101.6 L1130.0,105.1 L1138.0,109.0 L1146.0,113.0 L1154.0,116.7 L1162.0,120.0 L1170.0,122.6 L1178.0,124.3 L1186.0,125.0 L1194.0,124.7 L1202.0,123.3 L1210.0,121.0 L1218.0,118.0 L1226.0,114.4 L1234.0,110.5 L1242.0,106.6 L1250.0,102.9 L1258.0,99.7 L1266.0,97.2 L1274.0,95.6 L1282.0,95.0 L1290.0,95.5 L1298.0,96.9 L1306.0,99.3 L1314.0,102.4 L1322.0,106.1 L1330.0,110.0 L1338.0,113.9 L1346.0,117.6 L1354.0,120.7 L1362.0,123.1 L1370.0,124.5 L1378.0,125.0 L1386.0,124.4 L1390.0,170 L-190.0,170 Z" fill="url(#g2)"><animateTransform attributeName="transform" type="translate" values="0 0; -190 0" dur="7s" repeatCount="indefinite"/></path>
<path d="M-150.0,122.0 L-142.0,125.6 L-134.0,128.8 L-126.0,131.3 L-118.0,132.7 L-110.0,132.9 L-102.0,132.0 L-94.0,129.9 L-86.0,126.9 L-78.0,123.4 L-70.0,119.7 L-62.0,116.3 L-54.0,113.5 L-46.0,111.7 L-38.0,111.0 L-30.0,111.5 L-22.0,113.2 L-14.0,115.9 L-6.0,119.3 L2.0,122.9 L10.0,126.5 L18.0,129.5 L26.0,131.7 L34.0,132.9 L42.0,132.8 L50.0,131.5 L58.0,129.2 L66.0,126.0 L74.0,122.5 L82.0,118.8 L90.0,115.5 L98.0,113.0 L106.0,111.4 L114.0,111.0 L122.0,111.9 L130.0,113.8 L138.0,116.7 L146.0,120.2 L154.0,123.8 L162.0,127.3 L170.0,130.2 L178.0,132.1 L186.0,133.0 L194.0,132.6 L202.0,131.0 L210.0,128.5 L218.0,125.2 L226.0,121.5 L234.0,118.0 L242.0,114.8 L250.0,112.5 L258.0,111.2 L266.0,111.1 L274.0,112.3 L282.0,114.5 L290.0,117.5 L298.0,121.1 L306.0,124.7 L314.0,128.1 L322.0,130.8 L330.0,132.5 L338.0,133.0 L346.0,132.3 L354.0,130.5 L362.0,127.7 L370.0,124.3 L378.0,120.6 L386.0,117.1 L394.0,114.1 L402.0,112.0 L410.0,111.1 L418.0,111.3 L426.0,112.7 L434.0,115.2 L442.0,118.4 L450.0,122.0 L458.0,125.6 L466.0,128.8 L474.0,131.3 L482.0,132.7 L490.0,132.9 L498.0,132.0 L506.0,129.9 L514.0,126.9 L522.0,123.4 L530.0,119.7 L538.0,116.3 L546.0,113.5 L554.0,111.7 L562.0,111.0 L570.0,111.5 L578.0,113.2 L586.0,115.9 L594.0,119.3 L602.0,122.9 L610.0,126.5 L618.0,129.5 L626.0,131.7 L634.0,132.9 L642.0,132.8 L650.0,131.5 L658.0,129.2 L666.0,126.0 L674.0,122.5 L682.0,118.8 L690.0,115.5 L698.0,113.0 L706.0,111.4 L714.0,111.0 L722.0,111.9 L730.0,113.8 L738.0,116.7 L746.0,120.2 L754.0,123.8 L762.0,127.3 L770.0,130.2 L778.0,132.1 L786.0,133.0 L794.0,132.6 L802.0,131.0 L810.0,128.5 L818.0,125.2 L826.0,121.5 L834.0,118.0 L842.0,114.8 L850.0,112.5 L858.0,111.2 L866.0,111.1 L874.0,112.3 L882.0,114.5 L890.0,117.5 L898.0,121.1 L906.0,124.7 L914.0,128.1 L922.0,130.8 L930.0,132.5 L938.0,133.0 L946.0,132.3 L954.0,130.5 L962.0,127.7 L970.0,124.3 L978.0,120.6 L986.0,117.1 L994.0,114.1 L1002.0,112.0 L1010.0,111.1 L1018.0,111.3 L1026.0,112.7 L1034.0,115.2 L1042.0,118.4 L1050.0,122.0 L1058.0,125.6 L1066.0,128.8 L1074.0,131.3 L1082.0,132.7 L1090.0,132.9 L1098.0,132.0 L1106.0,129.9 L1114.0,126.9 L1122.0,123.4 L1130.0,119.7 L1138.0,116.3 L1146.0,113.5 L1154.0,111.7 L1162.0,111.0 L1170.0,111.5 L1178.0,113.2 L1186.0,115.9 L1194.0,119.3 L1202.0,122.9 L1210.0,126.5 L1218.0,129.5 L1226.0,131.7 L1234.0,132.9 L1242.0,132.8 L1250.0,131.5 L1258.0,129.2 L1266.0,126.0 L1274.0,122.5 L1282.0,118.8 L1290.0,115.5 L1298.0,113.0 L1306.0,111.4 L1314.0,111.0 L1322.0,111.9 L1330.0,113.8 L1338.0,116.7 L1346.0,120.2 L1350.0,170 L-150.0,170 Z" fill="url(#g3)"><animateTransform attributeName="transform" type="translate" values="0 0; 150 0" dur="5s" repeatCount="indefinite"/></path>
</svg>