<svg xmlns="http://www.w3.org/2000/svg" width="512" height="80" viewBox="0 0 512 80" fill="none">
<defs><linearGradient id="tile" x1="0" y1="0" x2="0" y2="1"><stop offset="0" stop-color="#1B3355"/><stop offset="1" stop-color="#0E1E33"/></linearGradient></defs>
<rect x="12" y="12" width="56" height="56" rx="15" fill="url(#tile)" stroke="#FFFFFF" stroke-opacity="0.10"/>
<svg x="25" y="25" width="30" height="30" viewBox="0 0 128 128"><linearGradient id="python-original-a" gradientUnits="userSpaceOnUse" x1="70.252" y1="1237.476" x2="170.659" y2="1151.089" gradientTransform="matrix(.563 0 0 -.568 -29.215 707.817)"><stop offset="0" stop-color="#5A9FD4"/><stop offset="1" stop-color="#306998"/></linearGradient><linearGradient id="python-original-b" gradientUnits="userSpaceOnUse" x1="209.474" y1="1098.811" x2="173.62" y2="1149.537" gradientTransform="matrix(.563 0 0 -.568 -29.215 707.817)"><stop offset="0" stop-color="#FFD43B"/><stop offset="1" stop-color="#FFE873"/></linearGradient><path fill="url(#python-original-a)" d="M63.391 1.988c-4.222.02-8.252.379-11.8 1.007-10.45 1.846-12.346 5.71-12.346 12.837v9.411h24.693v3.137H29.977c-7.176 0-13.46 4.313-15.426 12.521-2.268 9.405-2.368 15.275 0 25.096 1.755 7.311 5.947 12.519 13.124 12.519h8.491V67.234c0-8.151 7.051-15.34 15.426-15.34h24.665c6.866 0 12.346-5.654 12.346-12.548V15.833c0-6.693-5.646-11.72-12.346-12.837-4.244-.706-8.645-1.027-12.866-1.008zM50.037 9.557c2.55 0 4.634 2.117 4.634 4.721 0 2.593-2.083 4.69-4.634 4.69-2.56 0-4.633-2.097-4.633-4.69-.001-2.604 2.073-4.721 4.633-4.721z" transform="translate(0 10.26)"/><path fill="url(#python-original-b)" d="M91.682 28.38v10.966c0 8.5-7.208 15.655-15.426 15.655H51.591c-6.756 0-12.346 5.783-12.346 12.549v23.515c0 6.691 5.818 10.628 12.346 12.547 7.816 2.297 15.312 2.713 24.665 0 6.216-1.801 12.346-5.423 12.346-12.547v-9.412H63.938v-3.138h37.012c7.176 0 9.852-5.005 12.348-12.519 2.578-7.735 2.467-15.174 0-25.096-1.774-7.145-5.161-12.521-12.348-12.521h-9.268zM77.809 87.927c2.561 0 4.634 2.097 4.634 4.692 0 2.602-2.074 4.719-4.634 4.719-2.55 0-4.633-2.117-4.633-4.719 0-2.595 2.083-4.692 4.633-4.692z" transform="translate(0 10.26)"/><radialGradient id="python-original-c" cx="1825.678" cy="444.45" r="26.743" gradientTransform="matrix(0 -.24 -1.055 0 532.979 557.576)" gradientUnits="userSpaceOnUse"><stop offset="0" stop-color="#B8B8B8" stop-opacity=".498"/><stop offset="1" stop-color="#7F7F7F" stop-opacity="0"/></radialGradient><path opacity=".444" fill="url(#python-original-c)" d="M97.309 119.597c0 3.543-14.816 6.416-33.091 6.416-18.276 0-33.092-2.873-33.092-6.416 0-3.544 14.815-6.417 33.092-6.417 18.275 0 33.091 2.872 33.091 6.417z"/></svg>
<rect x="84" y="12" width="56" height="56" rx="15" fill="url(#tile)" stroke="#FFFFFF" stroke-opacity="0.10"/>
<svg x="97" y="25" width="30" height="30" viewBox="0 0 128 128"><g fill="#FFFFFF"><path d="M29.2 63H28c-.5 5.1-1.2 11.3-10 11.3h-4c-2.3 0-2.4-.3-2.4-2V45.8c0-1.7 0-2.4 4.7-2.4h1.6v-1.5c-1.9.1-6.3.1-8.4.1-1.9 0-5.8 0-7.5-.1v1.5h1.1c3.8 0 3.9.5 3.9 2.3v26.1c0 1.8-.1 2.3-3.9 2.3H2v1.5h25.8L29.2 63z"/><path d="M28.3 41.8c-.2-.6-.3-.8-.9-.8s-.8.2-1 .8l-8 20.3c-.3.8-.9 2.4-4 2.4v1.2h7.7v-1.2c-1.5 0-2.5-.7-2.5-1.7 0-.2 0-.3.1-.7l1.7-4.3h9.9l2 5.1c.1.2.2.4.2.6 0 1-1.9 1-2.8 1v1.2h9.8v-1.2h-.7c-2.3 0-2.6-.3-2.9-1.3l-8.6-21.4zm-1.9 3.6l4.4 11.3h-8.9l4.5-11.3z"/><path d="M68.2 42.2H37.9L37 53.3h1.2c.7-8 1.4-9.7 9-9.7.9 0 2.2 0 2.7.1 1 .2 1 .7 1 1.9v26.1c0 1.7 0 2.4-5.2 2.4h-2v1.5c2-.1 7.1-.1 9.4-.1s7.4 0 9.5.1v-1.5h-2c-5.2 0-5.2-.7-5.2-2.4v-26c0-1 0-1.7.9-1.9.5-.1 1.9-.1 2.8-.1 7.5 0 8.2 1.6 8.9 9.7h1.2l-1-11.2z"/><path d="M94.9 74.2h-1.2c-1.2 7.6-2.4 11.3-10.9 11.3h-6.6c-2.3 0-2.4-.3-2.4-2V70.2h4.4c4.8 0 5.4 1.6 5.4 5.8h1.2V62.9h-1.2c0 4.2-.5 5.8-5.4 5.8h-4.4v-12c0-1.6.1-2 2.4-2h6.4c7.6 0 8.9 2.7 9.7 9.7h1.2l-1.4-11.2H64.2v1.5h1.1c3.8 0 3.9.5 3.9 2.3v26c0 1.8-.1 2.3-3.9 2.3h-1.1V87h28.6l2.1-12.8z"/><path d="M109.9 56.6l6.8-10c1-1.6 2.7-3.2 7.2-3.2v-1.5H112v1.5c2 0 3.1 1.1 3.1 2.3 0 .5-.1.6-.4 1.1l-5.7 8.4-6.4-9.6c-.1-.1-.3-.5-.3-.7 0-.6 1.1-1.4 3.2-1.5v-1.5c-1.7.1-5.3.1-7.2.1-1.5 0-4.6 0-6.5-.1v1.5h.9c2.7 0 3.7.3 4.6 1.7l9.1 13.8-8.1 12c-.7 1-2.2 3.3-7.2 3.3v1.5H103v-1.5c-2.3 0-3.1-1.4-3.1-2.3 0-.4.1-.6.5-1.2l7-10.4 7.9 11.9c.1.2.2.4.2.5 0 .6-1.1 1.4-3.2 1.5v1.5c1.7-.1 5.4-.1 7.2-.1 2.1 0 4.4 0 6.5.1v-1.5h-.9c-2.6 0-3.6-.2-4.7-1.8l-10.5-15.8z"/></g></svg>
<rect x="156" y="12" width="56" height="56" rx="15" fill="url(#tile)" stroke="#FFFFFF" stroke-opacity="0.10"/>
<svg x="169" y="25" width="30" height="30" viewBox="0 0 128 128"><path fill="#F34F29" d="M124.737 58.378L69.621 3.264c-3.172-3.174-8.32-3.174-11.497 0L46.68 14.71l14.518 14.518c3.375-1.139 7.243-.375 9.932 2.314 2.703 2.706 3.461 6.607 2.294 9.993l13.992 13.993c3.385-1.167 7.292-.413 9.994 2.295 3.78 3.777 3.78 9.9 0 13.679a9.673 9.673 0 01-13.683 0 9.677 9.677 0 01-2.105-10.521L68.574 47.933l-.002 34.341a9.708 9.708 0 012.559 1.828c3.778 3.777 3.778 9.898 0 13.683-3.779 3.777-9.904 3.777-13.679 0-3.778-3.784-3.778-9.905 0-13.683a9.65 9.65 0 013.167-2.11V47.333a9.581 9.581 0 01-3.167-2.111c-2.862-2.86-3.551-7.06-2.083-10.576L41.056 20.333 3.264 58.123a8.133 8.133 0 000 11.5l55.117 55.114c3.174 3.174 8.32 3.174 11.499 0l54.858-54.858a8.135 8.135 0 00-.001-11.501z"/></svg>
<rect x="228" y="12" width="56" height="56" rx="15" fill="url(#tile)" stroke="#FFFFFF" stroke-opacity="0.10"/>
<svg x="241" y="25" width="30" height="30" viewBox="0 0 128 128"><mask id="a" width="128" height="128" x="0" y="0" maskUnits="userSpaceOnUse" style="mask-type:alpha"><path fill="#fff" fill-rule="evenodd" d="M90.767 127.126a7.968 7.968 0 0 0 6.35-.244l26.353-12.681a8 8 0 0 0 4.53-7.209V21.009a8 8 0 0 0-4.53-7.21L97.117 1.12a7.97 7.97 0 0 0-9.093 1.548l-50.45 46.026L15.6 32.013a5.328 5.328 0 0 0-6.807.302l-7.048 6.411a5.335 5.335 0 0 0-.006 7.888L20.796 64 1.74 81.387a5.336 5.336 0 0 0 .006 7.887l7.048 6.411a5.327 5.327 0 0 0 6.807.303l21.974-16.68 50.45 46.025a7.96 7.96 0 0 0 2.743 1.793Zm5.252-92.183L57.74 64l38.28 29.058V34.943Z" clip-rule="evenodd"/></mask><g mask="url(#a)"><path fill="#0065A9" d="M123.471 13.82 97.097 1.12A7.973 7.973 0 0 0 88 2.668L1.662 81.387a5.333 5.333 0 0 0 .006 7.887l7.052 6.411a5.333 5.333 0 0 0 6.811.303l103.971-78.875c3.488-2.646 8.498-.158 8.498 4.22v-.306a8.001 8.001 0 0 0-4.529-7.208Z"/><g filter="url(#b)"><path fill="#007ACC" d="m123.471 114.181-26.374 12.698A7.973 7.973 0 0 1 88 125.333L1.662 46.613a5.333 5.333 0 0 1 .006-7.887l7.052-6.411a5.333 5.333 0 0 1 6.811-.303l103.971 78.874c3.488 2.647 8.498.159 8.498-4.219v.306a8.001 8.001 0 0 1-4.529 7.208Z"/></g><g filter="url(#c)"><path fill="#1F9CF0" d="M97.098 126.882A7.977 7.977 0 0 1 88 125.333c2.952 2.952 8 .861 8-3.314V5.98c0-4.175-5.048-6.266-8-3.313a7.977 7.977 0 0 1 9.098-1.549L123.467 13.8A8 8 0 0 1 128 21.01v85.982a8 8 0 0 1-4.533 7.21l-26.369 12.681Z"/></g><path fill="url(#d)" fill-rule="evenodd" d="M90.69 127.126a7.968 7.968 0 0 0 6.349-.244l26.353-12.681a8 8 0 0 0 4.53-7.21V21.009a8 8 0 0 0-4.53-7.21L97.039 1.12a7.97 7.97 0 0 0-9.093 1.548l-50.45 46.026-21.974-16.68a5.328 5.328 0 0 0-6.807.302l-7.048 6.411a5.336 5.336 0 0 0-.006 7.888L20.718 64 1.662 81.386a5.335 5.335 0 0 0 .006 7.888l7.048 6.411a5.328 5.328 0 0 0 6.807.303l21.975-16.681 50.45 46.026a7.959 7.959 0 0 0 2.742 1.793Zm5.252-92.184L57.662 64l38.28 29.057V34.943Z" clip-rule="evenodd" opacity="0.25" style="mix-blend-mode:overlay"/></g><defs><filter id="b" width="144.744" height="113.408" x="-8.41115" y="22.5944" color-interpolation-filters="sRGB" filterUnits="userSpaceOnUse"><feFlood flood-opacity="0" result="BackgroundImageFix"/><feColorMatrix in="SourceAlpha" result="hardAlpha" values="0 0 0 0 0 0 0 0 0 0 0 0 0 0 0 0 0 0 127 0"/><feOffset/><feGaussianBlur stdDeviation="4.16667"/><feColorMatrix values="0 0 0 0 0 0 0 0 0 0 0 0 0 0 0 0 0 0 0.25 0"/><feBlend in2="BackgroundImageFix" mode="overlay" result="effect1_dropShadow_1_36"/><feBlend in="SourceGraphic" in2="effect1_dropShadow_1_36" result="shape"/></filter><filter id="c" width="56.6667" height="144.007" x="79.6667" y="-8.0035" color-interpolation-filters="sRGB" filterUnits="userSpaceOnUse"><feFlood flood-opacity="0" result="BackgroundImageFix"/><feColorMatrix in="SourceAlpha" result="hardAlpha" values="0 0 0 0 0 0 0 0 0 0 0 0 0 0 0 0 0 0 127 0"/><feOffset/><feGaussianBlur stdDeviation="4.16667"/><feColorMatrix values="0 0 0 0 0 0 0 0 0 0 0 0 0 0 0 0 0 0 0.25 0"/><feBlend in2="BackgroundImageFix" mode="overlay" result="effect1_dropShadow_1_36"/><feBlend in="SourceGraphic" in2="effect1_dropShadow_1_36" result="shape"/></filter><linearGradient id="d" x1="63.9222" x2="63.9222" y1="0.329902" y2="127.67" gradientUnits="userSpaceOnUse"><stop stop-color="#fff"/><stop offset="1" stop-color="#fff" stop-opacity="0"/></linearGradient></defs></svg>
<rect x="300" y="12" width="56" height="56" rx="15" fill="url(#tile)" stroke="#FFFFFF" stroke-opacity="0.10"/>
<svg x="313" y="25" width="30" height="30" viewBox="0 0 24 24"><g fill="#FFFFFF"><path d="M6.823 3.103c-.1 0-.213.006-.34.017-.511.044-1.25.18-1.802.329a6.269 6.269 0 0 0-1.15.42c-.231.112-.33.178-.354.273-.023.094.028.217.16.436s.346.533.535.961c.19.428.356.97.361 1.651.006.68-.149 1.5-.245 1.962-.096.462-.133.568-.227.618-.094.05-.245.044-.525-.021-.281-.065-.69-.187-1.1-.259-.41-.072-.819-.093-1.122-.038-.304.056-.504.189-.645.369-.14.18-.224.406-.282.75A6.957 6.957 0 0 0 0 11.687c.005.317.047.49.136.584.088.094.223.109.492.054s.672-.18 1.224-.215a6.302 6.302 0 0 1 1.94.202c.685.182 1.353.49 1.95.93.598.438 1.127 1.007 1.566 1.593.438.586.787 1.189 1.004 1.541.217.353.304.455.372.42.068-.035.117-.207.145-.417a3.141 3.141 0 0 0-.02-.848 7.467 7.467 0 0 0-.32-1.365 5.617 5.617 0 0 0-.495-1.018c-.146-.247-.241-.408-.245-.51-.004-.103.085-.148.51-.315.424-.167 1.185-.457 1.958-.808.772-.351 1.556-.764 2.042-1.106.486-.341.674-.61.724-.937.05-.326-.039-.71-.16-1.076a6.93 6.93 0 0 0-.529-1.193A13.696 13.696 0 0 0 11.28 5.6a9.187 9.187 0 0 0-1.1-1.236c-.282-.255-.421-.31-.51-.29-.09.02-.131.115-.168.47-.037.356-.07.973-.144 1.559a7.468 7.468 0 0 1-.432 1.773 12.543 12.543 0 0 1-.99 1.982c-.388.64-.803 1.212-1.054 1.462-.25.25-.336.18-.477.064l-.486-.4c-.15-.125-.253-.213-.273-.293-.02-.08.045-.15.27-.448.227-.299.615-.825.96-1.478a7.75 7.75 0 0 0 .796-2.282 10.1 10.1 0 0 0 .095-2.338c-.044-.564-.124-.77-.306-.896-.137-.095-.332-.146-.638-.146zm6.48 7.034h-.012c-.084.01-.192.112-.415.294a6.86 6.86 0 0 1-1.017.7c-.458.257-1.038.507-1.51.734-.47.226-.831.429-1.004.712-.172.283-.155.648.04.85.194.204.566.246.883.259.318.013.58-.002.826.087.246.09.475.285.764.516.288.23.637.498.925.561.289.063.518-.079.766-.202.249-.124.516-.23.888-.225.371.005.847.12 1.318.37.47.248.938.63 1.184.866.247.236.272.327.245.362-.028.036-.108.018-.304-.14-.196-.157-.508-.454-.917-.688-.41-.234-.916-.404-1.4-.391-.482.013-.94.21-1.23.55-.29.34-.412.822-.546 1.164-.133.341-.28.543-.47.617-.19.074-.424.02-.703-.099-.28-.12-.604-.307-.874-.442-.269-.136-.484-.22-.62-.353-.136-.132-.195-.31-.203-.571-.01-.26.032-.6.05-.853.02-.25.018-.413-.038-.56a1.079 1.079 0 0 0-.232-.35c-.07-.07-.099-.075-.113-.058-.014.017-.012.058.01.158.023.1.067.26.05.581-.019.321-.098.803-.16 1.17-.062.366-.107.618-.02.808.087.191.306.322.707.54.4.22.982.527 1.518.855.537.327 1.027.673 1.562 1.089.534.415 1.112.9 1.5 1.238.39.339.588.532.742.59.154.059.264-.018.307-.138.044-.12.023-.285-.014-.429a1.174 1.174 0 0 0-.24-.46 4.92 4.92 0 0 0-.68-.704c-.287-.243-.614-.463-.803-.614-.19-.151-.242-.233-.212-.259.03-.026.14.004.302.108.162.103.375.28.612.459.237.178.499.356.733.584.235.228.443.506.583.706.14.201.214.324.294.372.08.049.165.022.277-.05a3.03 3.03 0 0 0 .426-.355c.178-.169.398-.393.551-.633.154-.24.242-.496.299-.772.056-.276.08-.572.247-.862.167-.29.476-.574.994-1.025.518-.451 1.244-1.07 1.891-1.664.648-.595 1.216-1.165 1.696-1.802.479-.638.87-1.342 1.067-1.743.199-.4.205-.498.14-.526-.063-.027-.198.015-.61.313-.414.297-1.106.849-1.886 1.43-.781.58-1.65 1.19-2.336 1.569-.686.378-1.19.524-1.55.562-.361.037-.58-.034-.724-.11-.143-.077-.21-.158-.224-.241-.013-.084.03-.17.135-.275.106-.106.277-.232.447-.392.17-.16.338-.354.468-.556.13-.202.22-.411.261-.592.042-.181.034-.333-.04-.376-.074-.043-.215.023-.376.11-.162.086-.343.192-.593.3a2.683 2.683 0 0 1-.92.235 1.626 1.626 0 0 1-1.088-.313c-.343-.26-.635-.71-.866-1.147-.23-.438-.398-.865-.512-1.12-.108-.242-.168-.33-.246-.33zm-2.215 4.075a.422.422 0 0 0-.294.115c-.094.086-.145.2-.034.338.112.137.385.297.636.469.252.172.481.357.666.42.184.064.323.006.402-.096.08-.102.1-.247-.003-.404-.103-.157-.327-.325-.564-.481-.238-.157-.488-.302-.681-.346a.574.574 0 0 0-.128-.015zm.252.208c.025 0 .053.003.083.01.118.026.272.115.418.211.145.096.283.2.333.289.05.089.014.163-.048.216a.255.255 0 0 1-.247.053c-.1-.031-.216-.126-.36-.219-.145-.093-.319-.184-.387-.268-.068-.084-.031-.162.029-.218a.26.26 0 0 1 .18-.074zm4.778 3.728c.211-.008.42.06.602.24.183.178.34.467.383.732.042.265-.03.505-.125.692a1.58 1.58 0 0 1-.289.397c-.074.074-.109.095-.14.095h-.003c-.033-.001-.062-.023-.208-.171a7.39 7.39 0 0 1-.573-.642c-.165-.22-.232-.383-.263-.568-.032-.185-.027-.39.082-.536.109-.146.323-.23.534-.239zm.093 1.111a.258.258 0 0 0-.153.046c-.058.041-.105.113-.093.185.012.073.085.146.174.255.089.11.195.255.264.335.068.08.1.093.127.091.029-.002.054-.018.086-.048a.349.349 0 0 0 .094-.157.518.518 0 0 0 .002-.316.668.668 0 0 0-.218-.282.476.476 0 0 0-.283-.109z"/></g></svg>
<rect x="372" y="12" width="56" height="56" rx="15" fill="url(#tile)" stroke="#FFFFFF" stroke-opacity="0.10"/>
<svg x="385" y="25" width="30" height="30" viewBox="0 0 24 24"><g fill="#16C0C0"><path d="M1.478 10.016c.24 0 .59.046 1.046.14v.726a2.465 2.465 0 0 0-.946-.213c-.41 0-.615.118-.615.354 0 .088.041.16.124.216.069.045.258.14.568.286.446.208.743.388.89.541.176.182.264.417.264.705 0 .415-.172.73-.516.949-.279.176-.64.264-1.085.264-.375 0-.753-.046-1.133-.139v-.755c.41.135.774.203 1.09.203.437 0 .655-.121.655-.362a.302.302 0 0 0-.095-.227c-.065-.065-.232-.155-.5-.27-.481-.208-.795-.384-.94-.53a.999.999 0 0 1-.284-.73c0-.377.137-.666.413-.864.272-.196.626-.294 1.064-.294zm21.19 0c.246 0 .565.04.956.123l.09.016v.727a2.471 2.471 0 0 0-.948-.213c-.409 0-.612.118-.612.354 0 .088.04.16.123.216.066.043.256.139.57.286.443.208.74.388.889.541.176.182.264.417.264.705 0 .415-.172.73-.514.949-.28.176-.643.264-1.087.264-.376 0-.754-.046-1.134-.139v-.755c.407.135.77.203 1.09.203.437 0 .655-.121.655-.362 0-.09-.03-.166-.092-.227-.066-.065-.233-.155-.503-.27-.48-.206-.793-.382-.94-.53a.997.997 0 0 1-.284-.732c0-.376.137-.664.413-.862.272-.196.627-.294 1.064-.294zm-12.674.066l.92 2.444.942-2.444h1.257v3.825h-.968v-2.708l-1.072 2.747h-.632l-1.052-2.747v2.708H8.67v-3.825zm-5.587 0v3.825H3.386v-3.825zm3.554 0v.692H6.327v.864H7.75v.63H6.327v.908h1.677v.73h-2.66v-3.824zm8.707 0v.692h-1.634v.864h1.422v.63h-1.422v.908h1.677v.73H14.05v-3.824zm1.898 0l1.255 2.56v-2.56h.719v3.825h-1.15l-1.288-2.595v2.595h-.72v-3.825z"/></g></svg>
<rect x="444" y="12" width="56" height="56" rx="15" fill="url(#tile)" stroke="#FFFFFF" stroke-opacity="0.10"/>
<svg x="457" y="25" width="30" height="30" viewBox="0 0 24 24"><g fill="#FFB71B"><path d="M19.0424 10.089l-.993 2.4233-.9932-2.4233h-1.227l1.6066 3.921-.7039 1.7179h1.227l2.3104-5.639zm4.667 2.1272c-.1936-.1936-.5004-.3377-.9209-.4332l-.6984-.1599c-.1678-.0447-.2858-.0923-.3531-.143-.0673-.0506-.101-.1207-.101-.2101 0-.1232.0562-.2186.1683-.2859.112-.0673.2664-.101.4628-.101.426 0 .858.1513 1.2954.4542l.3362-.841c-.2241-.1627-.4767-.2886-.757-.3784a2.8304 2.8304 0 0 0-.8663-.1347c-.3476 0-.6576.0562-.9292.1683-.2724.112-.4826.2665-.631.4624-.1485.1964-.223.4237-.223.6814 0 .3254.0939.582.282.7696.1876.188.4806.3267.8789.4165l.673.1517c.2075.0447.3492.0954.4248.1512.076.0562.1136.1346.1136.2356 0 .1124-.0546.2007-.1639.2648-.1092.0645-.262.0966-.4584.0966-.2748 0-.5468-.042-.816-.1259-.2692-.0843-.5163-.2019-.7403-.3531l-.3366.8745c.23.1628.5032.2875.8204.3746.3167.0867.6655.1302 1.0471.1302.555 0 .991-.1136 1.3081-.3408.3167-.2273.4751-.5397.4751-.938-.0008-.331-.0974-.593-.2906-.7866zm-9.3815-.4332l-.698-.1599c-.1682-.0447-.2862-.0923-.3535-.143-.0669-.0506-.1006-.1207-.1006-.2101 0-.1232.0558-.2186.168-.2859.112-.0673.2664-.101.4627-.101.426 0 .858.1513 1.2955.4542l.3365-.841c-.2245-.1627-.4767-.2886-.757-.3784a2.8323 2.8323 0 0 0-.8663-.1347c-.348 0-.6576.0562-.9296.1683-.272.112-.4822.2665-.6306.4624-.1489.1964-.223.4237-.223.6814 0 .3254.0943.582.282.7696.1876.188.481.3267.8793.4165l.673.1517c.2075.0447.3488.0954.4248.1512.0756.0562.1137.1346.1137.2356 0 .1124-.0546.2007-.164.2648-.1092.0645-.2624.0966-.4584.0966-.2748 0-.5468-.042-.816-.1259-.2688-.0843-.5159-.2019-.7403-.3531l-.3362.8745c.2297.1628.5032.2875.82.3746.3167.0867.6659.1302 1.0471.1302.5551 0 .991-.1136 1.3081-.3408.3168-.2273.4751-.5397.4751-.938 0-.3305-.0966-.593-.2902-.7862-.1944-.194-.5012-.3381-.922-.4336zM9.823 9.9828c-.2918 0-.5539.059-.7863.1766-.2328.1176-.422.2886-.5677.5131v-.5887H7.2325v4.1301h1.27v-2.3133c0-.2803.08-.5048.24-.673.1595-.1683.3713-.2526.635-.2526.219 0 .3797.0645.4838.1936.1037.129.1556.3337.1556.614v2.431h1.27v-2.49c0-.5831-.1207-1.019-.3618-1.308-.2415-.2882-.6089-.4328-1.1022-.4328zM4.4334 8.4594l-.8176 1.9954 1.5381 3.7544h1.7262zm-.3726-.1873H2.4325L0 14.2091h1.6284z"/></g></svg>
</svg>