<svg xmlns="http://www.w3.org/2000/svg" viewBox="0 0 880 428" width="880" height="428" font-family="'JetBrains Mono','SFMono-Regular',Consolas,monospace">
<defs>
<linearGradient id="win" x1="0" y1="0" x2="0" y2="1">
  <stop offset="0" stop-color="#0C1626"/><stop offset="1" stop-color="#090F19"/>
</linearGradient>
</defs>
<rect x="8" y="8" width="864" height="412" rx="11" fill="url(#win)" stroke="#1E2C42" stroke-width="1"/>
<rect x="8" y="8" width="864" height="34" rx="11" fill="#111C2E"/>
<rect x="8" y="26" width="864" height="16" fill="#111C2E"/>
<circle cx="34" cy="25" r="6" fill="#FF5F56"/>
<circle cx="54" cy="25" r="6" fill="#FFBD2E"/>
<circle cx="74" cy="25" r="6" fill="#27C93F"/>
<text x="440" y="29" text-anchor="middle" fill="#6E86A6" font-size="12">dacongan@naval-arch: ~/portfolio — zsh</text>
<text x="30" y="72" font-size="13"><tspan fill="#16C0C0">dacongan@naval-arch</tspan><tspan fill="#6E86A6">:~$ </tspan><tspan fill="#E6EDF3">neofetch</tspan></text>
<text xml:space="preserve" x="34" y="104" fill="#7CF5F5" font-size="12">         |    |    |</text>
<text xml:space="preserve" x="34" y="119" fill="#7CF5F5" font-size="12">        )_)  )_)  )_)</text>
<text xml:space="preserve" x="34" y="134" fill="#7CF5F5" font-size="12">       )___))___))___)\</text>
<text xml:space="preserve" x="34" y="149" fill="#7CF5F5" font-size="12">      )____)____)_____)\\</text>
<text xml:space="preserve" x="34" y="164" fill="#7CF5F5" font-size="12">    _____|____|____|______\\\__</text>
<text xml:space="preserve" x="34" y="179" fill="#7CF5F5" font-size="12">    \                        /</text>
<text xml:space="preserve" x="34" y="194" fill="#7CF5F5" font-size="12">  ~~~^~~~~^~~~~~^~~~~~^~~~~~^~~~</text>
<text x="320" y="104" fill="#16C0C0" font-size="13" font-weight="700">dacongan@naval-arch</text>
<text x="320" y="124" fill="#33507A" font-size="13">-------------------</text>
<text x="320" y="144" fill="#16C0C0" font-size="13" font-weight="700">Role</text>
<text x="415" y="144" fill="#C9D6E3" font-size="13">Naval Architecture &amp; Marine Systems Eng.</text>
<text x="320" y="164" fill="#16C0C0" font-size="13" font-weight="700">School</text>
<text x="415" y="164" fill="#C9D6E3" font-size="13">Univ. Politécnica de Cartagena (UPCT)</text>
<text x="320" y="184" fill="#16C0C0" font-size="13" font-weight="700">Focus</text>
<text x="415" y="184" fill="#C9D6E3" font-size="13">Computational Physics · Hydrodynamics</text>
<text x="320" y="204" fill="#16C0C0" font-size="13" font-weight="700">Lang</text>
<text x="415" y="204" fill="#C9D6E3" font-size="13">Python · LaTeX</text>
<text x="320" y="224" fill="#16C0C0" font-size="13" font-weight="700">CAD / CAE</text>
<text x="415" y="224" fill="#C9D6E3" font-size="13">Rhinoceros · Simcenter · Ansys</text>
<text x="320" y="244" fill="#16C0C0" font-size="13" font-weight="700">Learning</text>
<text x="415" y="244" fill="#C9D6E3" font-size="13">CFD · Finite-Element Method</text>
<text x="320" y="264" fill="#16C0C0" font-size="13" font-weight="700">Paper</text>
<text x="415" y="264" fill="#C9D6E3" font-size="13">Zenodo · DOI 10.5281/zenodo.20773128</text>
<text x="320" y="284" fill="#16C0C0" font-size="13" font-weight="700">Contact</text>
<text x="415" y="284" fill="#C9D6E3" font-size="13">Portfolio · LinkedIn · ORCID</text>
<rect x="320" y="310" width="15" height="15" rx="2" fill="#FF5F56"/>
<rect x="340" y="310" width="15" height="15" rx="2" fill="#16C0C0"/>
<rect x="360" y="310" width="15" height="15" rx="2" fill="#27C93F"/>
<rect x="380" y="310" width="15" height="15" rx="2" fill="#FFBD2E"/>
<rect x="400" y="310" width="15" height="15" rx="2" fill="#4C86E0"/>
<rect x="420" y="310" width="15" height="15" rx="2" fill="#B980F0"/>
<rect x="440" y="310" width="15" height="15" rx="2" fill="#7CF5F5"/>
<rect x="460" y="310" width="15" height="15" rx="2" fill="#E6EDF3"/>
<text x="30" y="354" font-size="13"><tspan fill="#16C0C0">dacongan@naval-arch</tspan><tspan fill="#6E86A6">:~$ </tspan></text>
<rect x="196" y="343" width="9" height="15" fill="#7CF5F5"><animate attributeName="opacity" values="1;1;0;0" dur="1.1s" repeatCount="indefinite"/></rect>
</svg>