<svg xmlns="http://www.w3.org/2000/svg" viewBox="0 0 880 408" width="880" height="408" font-family="'JetBrains Mono','SFMono-Regular',Consolas,monospace">
<defs><linearGradient id="win" x1="0" y1="0" x2="0" y2="1">
<stop offset="0" stop-color="#0C1626"/><stop offset="1" stop-color="#090F19"/></linearGradient></defs>
<rect x="8" y="8" width="864" height="392" rx="11" fill="url(#win)" stroke="#1E2C42" stroke-width="1"/>
<rect x="8" y="8" width="864" height="34" rx="11" fill="#111C2E"/>
<rect x="8" y="26" width="864" height="16" fill="#111C2E"/>
<circle cx="34" cy="25" r="6" fill="#FF5F56"/>
<circle cx="54" cy="25" r="6" fill="#FFBD2E"/>
<circle cx="74" cy="25" r="6" fill="#27C93F"/>
<text x="440" y="29" text-anchor="middle" fill="#6E86A6" font-size="12">dacongan@naval-arch: ~ — zsh</text>
<text x="30" y="72" font-size="13"><tspan fill="#16C0C0">dacongan@naval-arch</tspan><tspan fill="#6E86A6">:~$ </tspan><tspan fill="#E6EDF3">neofetch</tspan></text>

<text xml:space="preserve" x="34" y="104" fill="#7CF5F5" font-size="12">     |    |    |</text>
<text xml:space="preserve" x="34" y="119" fill="#7CF5F5" font-size="12">    )_)  )_)  )_)</text>
<text xml:space="preserve" x="34" y="134" fill="#7CF5F5" font-size="12">   )___))___))___)\</text>
<text xml:space="preserve" x="34" y="149" fill="#7CF5F5" font-size="12">  )____)____)_____)\\</text>
<text xml:space="preserve" x="34" y="164" fill="#7CF5F5" font-size="12">_____|____|____|____\\\__</text>
<text xml:space="preserve" x="34" y="179" fill="#7CF5F5" font-size="12">\                   /</text>
<text xml:space="preserve" x="34" y="194" fill="#7CF5F5" font-size="12"> ~~~^~~~~^~~~~^~~~~^~~</text>

<circle cx="176" cy="211" r="1.6" fill="#3E6E9C"><animate attributeName="opacity" values="1;0.2;1" dur="2.6s" repeatCount="indefinite"/></circle>
<circle cx="184" cy="203" r="2"   fill="#3E6E9C"><animate attributeName="opacity" values="0.25;1;0.25" dur="3.2s" repeatCount="indefinite"/></circle>
<circle cx="170" cy="198" r="1.3" fill="#3E6E9C"><animate attributeName="opacity" values="1;0.3;1" dur="2.1s" repeatCount="indefinite"/></circle>

<!-- Submarino S-80: silueta calcada de la referencia real -->
<g transform="translate(34,214) scale(0.175)">
<path d="M 1255,312 L 1253,311 L 1250,302 L 1247,300 L 1247,296 L 1238,287 L 1234,286 L 1223,278 L 1219,278 L 1212,272 L 1208,272 L 1201,267 L 1196,267 L 1183,261 L 1169,261 L 1166,258 L 1131,259 L 1124,255 L 1074,255 L 1072,253 L 1062,253 L 1061,248 L 1055,239 L 1050,242 L 1045,253 L 1042,252 L 1041,247 L 1033,247 L 1033,250 L 1029,251 L 1027,249 L 1027,245 L 1019,245 L 1018,250 L 979,251 L 968,250 L 965,247 L 955,247 L 954,245 L 942,245 L 929,235 L 929,158 L 914,148 L 913,143 L 911,143 L 908,139 L 908,99 L 871,100 L 870,122 L 880,122 L 881,120 L 906,122 L 907,140 L 905,143 L 862,142 L 862,86 L 858,82 L 859,9 L 858,1 L 853,0 L 852,142 L 844,143 L 842,141 L 842,49 L 845,47 L 842,43 L 842,38 L 845,35 L 845,26 L 842,24 L 842,19 L 838,10 L 835,12 L 833,23 L 830,26 L 830,35 L 833,39 L 833,43 L 830,46 L 833,49 L 833,141 L 831,143 L 820,143 L 817,146 L 814,145 L 814,134 L 816,132 L 814,122 L 816,121 L 816,110 L 814,108 L 814,102 L 809,95 L 801,112 L 801,119 L 805,124 L 801,131 L 804,134 L 805,144 L 787,151 L 785,141 L 782,138 L 777,138 L 774,141 L 774,153 L 769,157 L 761,157 L 754,164 L 748,179 L 749,183 L 745,187 L 745,202 L 743,203 L 743,217 L 740,220 L 740,229 L 737,231 L 734,241 L 727,247 L 721,247 L 719,250 L 531,250 L 529,248 L 532,244 L 531,241 L 526,241 L 523,243 L 526,246 L 525,250 L 516,250 L 515,246 L 518,242 L 511,241 L 509,242 L 509,245 L 512,246 L 511,250 L 353,250 L 350,253 L 342,253 L 340,247 L 333,247 L 332,252 L 328,255 L 324,254 L 327,250 L 326,247 L 318,247 L 318,250 L 321,252 L 320,255 L 311,255 L 308,250 L 299,250 L 296,259 L 288,258 L 286,261 L 269,261 L 266,264 L 245,264 L 243,267 L 229,267 L 224,270 L 196,257 L 131,221 L 129,218 L 118,215 L 117,213 L 97,215 L 76,214 L 73,216 L 76,219 L 101,218 L 115,224 L 114,228 L 93,228 L 91,230 L 80,230 L 78,232 L 78,302 L 74,306 L 66,306 L 63,309 L 55,309 L 51,312 L 39,314 L 35,318 L 28,318 L 20,322 L 19,305 L 14,299 L 12,299 L 9,302 L 9,311 L 6,313 L 7,326 L 0,331 L 7,335 L 6,348 L 9,351 L 9,359 L 11,362 L 14,362 L 20,354 L 19,340 L 21,338 L 26,338 L 29,341 L 35,341 L 36,343 L 43,343 L 46,347 L 61,349 L 76,355 L 78,357 L 78,393 L 81,395 L 131,395 L 136,390 L 141,376 L 145,372 L 149,371 L 167,372 L 170,375 L 187,375 L 191,378 L 206,377 L 210,381 L 225,380 L 231,383 L 254,383 L 258,386 L 284,386 L 288,389 L 347,389 L 349,391 L 1173,391 L 1175,389 L 1184,389 L 1187,386 L 1195,386 L 1198,383 L 1204,383 L 1217,375 L 1232,369 L 1242,359 L 1242,356 L 1255,340 Z" fill="#15314C" stroke="#4E86BC" stroke-width="6" stroke-linejoin="round"/>
</g>

<text x="320" y="104" fill="#16C0C0" font-size="13" font-weight="700">dacongan@naval-arch</text>
<text x="320" y="124" fill="#33507A" font-size="13">-------------------</text>
<text x="320" y="144" fill="#16C0C0" font-size="13" font-weight="700">Role</text>
<text x="415" y="144" fill="#C9D6E3" font-size="13">Naval Architecture &amp; Marine Systems Eng.</text>
<text x="320" y="164" fill="#16C0C0" font-size="13" font-weight="700">School</text>
<text x="415" y="164" fill="#C9D6E3" font-size="13">Univ. Politécnica de Cartagena (UPCT)</text>
<text x="320" y="184" fill="#16C0C0" font-size="13" font-weight="700">Focus</text>
<text x="415" y="184" fill="#C9D6E3" font-size="13">Computational Physics · Hydrodynamics</text>
<text x="320" y="204" fill="#16C0C0" font-size="13" font-weight="700">Lang</text>
<text x="415" y="204" fill="#C9D6E3" font-size="13">Python · LaTeX</text>
<text x="320" y="224" fill="#16C0C0" font-size="13" font-weight="700">CAD / CAE</text>
<text x="415" y="224" fill="#C9D6E3" font-size="13">Rhinoceros · Simcenter · Ansys</text>
<text x="320" y="244" fill="#16C0C0" font-size="13" font-weight="700">Location</text>
<text x="415" y="244" fill="#C9D6E3" font-size="13">Cartagena, España</text>
<text x="320" y="264" fill="#16C0C0" font-size="13" font-weight="700">Contact</text>
<text x="415" y="264" fill="#C9D6E3" font-size="13">Portfolio · LinkedIn · ORCID</text>
<rect x="320" y="290" width="15" height="15" rx="2" fill="#FF5F56"/>
<rect x="340" y="290" width="15" height="15" rx="2" fill="#16C0C0"/>
<rect x="360" y="290" width="15" height="15" rx="2" fill="#27C93F"/>
<rect x="380" y="290" width="15" height="15" rx="2" fill="#FFBD2E"/>
<rect x="400" y="290" width="15" height="15" rx="2" fill="#4C86E0"/>
<rect x="420" y="290" width="15" height="15" rx="2" fill="#B980F0"/>
<rect x="440" y="290" width="15" height="15" rx="2" fill="#7CF5F5"/>
<rect x="460" y="290" width="15" height="15" rx="2" fill="#E6EDF3"/>
<text x="30" y="372" font-size="13"><tspan fill="#16C0C0">dacongan@naval-arch</tspan><tspan fill="#6E86A6">:~$ </tspan></text>
<rect x="196" y="361" width="9" height="15" fill="#7CF5F5"><animate attributeName="opacity" values="1;1;0;0" dur="1.1s" repeatCount="indefinite"/></rect>
</svg>